. 
  
http://www.torrenting.com/        :     Greatest Movie Tracker on The Net!!!
 
http://www.Torrenting.com          :     Once & For all ;)


               www . Torrenting . Com 

(((((((((((((= Enjoy No RAR releases =))))))))))))))))))))


...................................NFO:....................................

.








































          
          
              
              
                    
                    
                    
                    

Tora.Tora.Tora.1970.DVDRip.x264.AC3-SiC

Poster:
[img]http://img69.imageshack.us/img69/93/postercgs.jpg[/img]

IMDB Link: 
http://www.imdb.com/title/tt0066473/

Description:
A dramatization of the Japanese attack on Pearl Harbor and the series of American blunders that allowed it to happen. 

MediaInfo:
General
Complete name                    : Tora.Tora.Tora.1970.DVDRip.x264.AC3-SiC.mkv
Format                           : Matroska
Format version                   : Version 2
File size                        : 1.84 GiB
Duration                         : 2h 24mn
Overall bit rate                 : 1 821 Kbps
Encoded date                     : UTC 2011-08-24 23:05:55
Writing application              : mkvmerge v4.9.1 ('Ich will') built on Jul 11 2011 23:53:15
Writing library                  : libebml v1.2.1 + libmatroska v1.1.1

Video
ID                               : 2
Format                           : AVC
Format/Info                      : Advanced Video Codec
Format profile                   : High@L3.0
Format settings, CABAC           : Yes
Format settings, ReFrames        : 4 frames
Muxing mode                      : Header stripping
Codec ID                         : V_MPEG4/ISO/AVC
Duration                         : 2h 24mn
Bit rate                         : 1 336 Kbps
Width                            : 720 pixels
Height                           : 368 pixels
Display aspect ratio             : 2.40:1
Original display aspect ratio    : 2.40:1
Frame rate                       : 23.976 fps
Color space                      : YUV
Chroma subsampling               : 4:2:0
Bit depth                        : 8 bits
Scan type                        : Progressive
Bits/(Pixel*Frame)               : 0.210
Stream size                      : 1.35 GiB (73%)
Writing library                  : x264 core 115 r1995 c1e60b9
Encoding settings                : cabac=1 / ref=3 / deblock=1:0:0 / analyse=0x3:0x133 / me=umh / subme=7 / psy=1 / psy_rd=1.00:0.00 / mixed_ref=1 / me_range=16 / chroma_me=1 / trellis=1 / 8x8dct=1 / cqm=0 / deadzone=21,11 / fast_pskip=1 / chroma_qp_offset=-2 / threads=9 / sliced_threads=0 / nr=0 / decimate=1 / interlaced=0 / bluray_compat=0 / constrained_intra=0 / bframes=3 / b_pyramid=2 / b_adapt=1 / b_bias=0 / direct=1 / weightb=1 / open_gop=1 / weightp=2 / keyint=250 / keyint_min=23 / scenecut=40 / intra_refresh=0 / rc_lookahead=40 / rc=crf / mbtree=1 / crf=18.0 / qcomp=0.60 / qpmin=0 / qpmax=69 / qpstep=4 / ip_ratio=1.40 / aq=1:1.00
Language                         : English

Audio
ID                               : 1
Format                           : AC-3
Format/Info                      : Audio Coding 3
Mode extension                   : CM (complete main)
Muxing mode                      : Header stripping
Codec ID                         : A_AC3
Duration                         : 2h 24mn
Bit rate mode                    : Constant
Bit rate                         : 448 Kbps
Channel(s)                       : 5 channels
Channel positions                : Front: L C R, Side: C, LFE
Sampling rate                    : 48.0 KHz
Bit depth                        : 16 bits
Compression mode                 : Lossy
Delay relative to video          : 6ms
Stream size                      : 464 MiB (25%)



Screenshots:
[img]http://img189.imageshack.us/img189/4640/vlcsnap2011082423h37m30.png[/img]
[img]http://img263.imageshack.us/img263/9050/vlcsnap2011082423h37m45.png[/img]
[img]http://img820.imageshack.us/img820/937/vlcsnap2011082423h38m10.png[/img]
[img]http://img18.imageshack.us/img18/3554/vlcsnap2011082423h38m16.png[/img]
[img]http://img856.imageshack.us/img856/5771/vlcsnap2011082423h38m34.png[/img]

Note: N/A

Encoder: Brian

Enjoy!

Respects to CaptainHomey, Cyanide, CM8, Rx, THC, ELEKTRI4KA, 
Killerhz, PA, YeFsTe, BoxSlots, MrRep and everyone in the struggle...